<mxfile host="app.diagrams.net" modified="2021-05-29T09:59:33.791Z" agent="5.0 (Windows NT 10.0; Win64; x64) AppleWebKit/537.36 (KHTML, like Gecko) Chrome/90.0.4430.212 Safari/537.36" etag="tJvJTC6Lrz3oleBEG2zP" version="14.7.2" type="github">
  <diagram id="Zj0VqfxcOf4tnuo1kFtc" name="Page-1">
    <mxGraphModel dx="1208" dy="406" grid="1" gridSize="10" guides="1" tooltips="1" connect="1" arrows="1" fold="1" page="1" pageScale="1" pageWidth="850" pageHeight="1100" math="0" shadow="0">
      <root>
        <mxCell id="0" />
        <mxCell id="1" parent="0" />
        <mxCell id="MIDnqqNurgsyz-szNdH_-1" value="&lt;span style=&quot;line-height: 107% ; font-family: &amp;#34;times new roman&amp;#34; , serif ; font-size: 14px&quot;&gt;Computational Complexity&amp;nbsp;&lt;/span&gt;" style="rounded=1;whiteSpace=wrap;html=1;" vertex="1" parent="1">
          <mxGeometry x="360" y="210" width="120" height="60" as="geometry" />
        </mxCell>
        <mxCell id="MIDnqqNurgsyz-szNdH_-6" style="edgeStyle=orthogonalEdgeStyle;rounded=0;orthogonalLoop=1;jettySize=auto;html=1;exitX=1;exitY=0.75;exitDx=0;exitDy=0;entryX=0.342;entryY=0.993;entryDx=0;entryDy=0;entryPerimeter=0;" edge="1" parent="1" source="MIDnqqNurgsyz-szNdH_-2" target="MIDnqqNurgsyz-szNdH_-1">
          <mxGeometry relative="1" as="geometry" />
        </mxCell>
        <mxCell id="MIDnqqNurgsyz-szNdH_-2" value="Students" style="rounded=1;whiteSpace=wrap;html=1;" vertex="1" parent="1">
          <mxGeometry x="200" y="280" width="120" height="60" as="geometry" />
        </mxCell>
        <mxCell id="MIDnqqNurgsyz-szNdH_-4" style="edgeStyle=orthogonalEdgeStyle;rounded=0;orthogonalLoop=1;jettySize=auto;html=1;exitX=0;exitY=0.75;exitDx=0;exitDy=0;entryX=0.676;entryY=1.008;entryDx=0;entryDy=0;entryPerimeter=0;" edge="1" parent="1" source="MIDnqqNurgsyz-szNdH_-3" target="MIDnqqNurgsyz-szNdH_-1">
          <mxGeometry relative="1" as="geometry" />
        </mxCell>
        <mxCell id="MIDnqqNurgsyz-szNdH_-3" value="Algorithms&amp;nbsp;" style="rounded=1;whiteSpace=wrap;html=1;" vertex="1" parent="1">
          <mxGeometry x="520" y="280" width="120" height="60" as="geometry" />
        </mxCell>
      </root>
    </mxGraphModel>
  </diagram>
</mxfile>
